Coordinates
version=1
nRows=17
nColumns=24
inDegrees=yes

Units are S.I. units (second, meters, Newtons, ...)
Angles are in degrees.

endheader
time	pelvis_tilt	pelvis_list	pelvis_rotation	pelvis_tx	pelvis_ty	pelvis_tz	hip_flexion_r	hip_adduction_r	hip_rotation_r	knee_angle_r	ankle_angle_r	subtalar_angle_r	mtp_angle_r	hip_flexion_l	hip_adduction_l	hip_rotation_l	knee_angle_l	ankle_angle_l	subtalar_angle_l	mtp_angle_l	lumbar_extension	lumbar_bending	lumbar_rotation
      0.97466667	     -1.86683215	      1.80284669	      1.85537607	     -0.09200361	      1.00253651	      0.29283962	    -13.28509946	      0.45697619	     -3.11836575	     -9.68705495	     10.44067580	     -2.03204008	      8.49614245	     20.40361227	      4.10017307	      4.97726883	      0.49240549	      0.75672605	     -5.88144357	      1.88643538	    -11.99893122	      2.74594147	      6.49946103
      0.97883333	     -1.89436923	      1.88679521	      1.81551525	     -0.08625093	      1.00188756	      0.29239978	    -13.26547489	      0.29422441	     -3.26216831	    -10.39011722	     10.53659810	     -1.67069435	      8.60137751	     20.36625645	      4.26494811	      5.14402669	      0.42334472	      0.64700825	     -5.89121644	      1.89416199	    -11.93676507	      2.66058775	      6.45566304
      0.98300000	     -1.92912860	      1.97533380	      1.78577368	     -0.08049993	      1.00124963	      0.29196844	    -13.22551439	      0.13333909	     -3.37328659	    -11.11426517	     10.58080732	     -1.43894901	      8.75488000	     20.34450201	      4.43971476	      5.34338217	      0.27099046	      0.45606139	     -6.00030959	      1.90995965	    -11.87765356	      2.55059155	      6.40270480
      0.98716667	     -1.93751076	      2.08390516	      1.76707988	     -0.07473594	      1.00065710	      0.29152507	    -13.19961286	     -0.04600448	     -3.47969916	    -11.87110986	     10.59710542	     -1.23562847	      8.95121932	     20.29996843	      4.63966696	      5.56310751	      0.04095779	      0.22178300	     -6.16543725	      1.93432232	    -11.84440233	      2.41677516	      6.33529892
      0.99133333	     -1.94010067	      2.20569540	      1.75292064	     -0.06895885	      1.00009765	      0.29105748	    -13.15922478	     -0.24300521	     -3.60495889	    -12.66680483	     10.58916892	     -1.02346096	      9.22735008	     20.25227089	      4.85818554	      5.79456985	     -0.25348193	     -0.06349101	     -6.41490366	      1.97115457	    -11.82016105	      2.26847709	      6.26138771
      0.99550000	     -1.96584028	      2.32756945	      1.74952022	     -0.06318160	      0.99953019	      0.29058573	    -13.07750241	     -0.43672407	     -3.71265918	    -13.48985766	     10.53466057	     -0.85763950	      9.61842130	     20.24642679	      5.08305883	      6.03876709	     -0.63461188	     -0.38422311	     -6.73891738	      2.02536788	    -11.77171777	      2.11667564	      6.18948393
      0.99966667	     -1.96566427	      2.47340936	      1.71879290	     -0.05736333	      0.99902344	      0.29014549	    -12.99049286	     -0.66472427	     -3.80467070	    -14.37998935	     10.45722000	     -0.71477592	      9.99999282	     20.18728861	      5.31963137	      6.25065338	     -1.00638561	     -0.74546282	     -7.05117625	      2.07565072	    -11.73408044	      1.93355472	      6.08968133
      1.00383333	     -1.94743409	      2.61092257	      1.72319633	     -0.05154308	      0.99855847	      0.28967572	    -12.94150947	     -0.86551870	     -3.86683816	    -15.20750910	     10.16453023	     -0.82895058	     15.27303153	     20.12913034	      5.56290782	      6.52848732	     -1.46068293	     -1.14511234	     -7.51380721	      2.81051615	    -11.73646274	      1.76676654	      6.00609485
      1.00800000	     -1.95006885	      2.77454775	      1.70284452	     -0.04571627	      0.99807282	      0.28920597	    -12.80080320	     -1.11799600	     -3.98731949	    -16.19277360	     10.02592926	     -0.64326716	     15.34906336	     20.11181057	      5.82416361	      6.65186196	     -1.98173864	     -1.50231154	     -7.78229950	      2.80635725	    -11.70633687	      1.56853427	      5.90598243
      1.01216667	     -1.96082043	      2.93847300	      1.68932544	     -0.03989556	      0.99761140	      0.28872826	    -12.63766579	     -1.36510140	     -4.07492066	    -17.19152978	      9.81423980	     -0.55608738	     15.48956501	     20.09910842	      6.09080412	      6.84985551	     -2.51915821	     -1.92557643	     -8.22580503	      2.80514810	    -11.66719401	      1.37106160	      5.79738606
      1.01633333	     -1.94138855	      3.09980800	      1.69332166	     -0.03406823	      0.99719904	      0.28821288	    -12.49359952	     -1.60811929	     -4.18837698	    -18.20797113	      9.53754060	     -0.45898303	     15.78630558	     20.06474447	      6.36369181	      7.06684887	     -3.10286914	     -2.36335774	     -8.79607297	      2.80996942	    -11.66870551	      1.17907910	      5.69287966
      1.02050000	     -1.93118789	      3.27116933	      1.68584026	     -0.02822768	      0.99679549	      0.28770976	    -12.30246247	     -1.86783041	     -4.29644529	    -19.28957067	      9.17796153	     -0.42125147	     16.34987377	     20.02556402	      6.64094028	      7.29631434	     -3.67296271	     -2.77675555	     -9.35982474	      2.82540770	    -11.64845942	      0.96838504	      5.57728515
      1.02466667	     -1.92551083	      3.44457124	      1.65122697	     -0.02241666	      0.99641714	      0.28727865	    -12.06562593	     -2.12981351	     -4.34513808	    -20.43573871	      8.81430553	     -0.47320039	     16.65035771	     20.02223438	      6.90204968	      7.33471351	     -4.30387460	     -3.20610649	     -9.69754400	      2.82586308	    -11.62693558	      0.75766784	      5.45575913
      1.02883333	     -1.87291051	      3.62727505	      1.64582986	     -0.01657985	      0.99613465	      0.28677044	    -11.88511799	     -2.39949497	     -4.43878796	    -21.54289795	      8.23524987	     -0.62813381	     22.51258656	     19.96182959	      7.19161074	      7.50086687	     -4.94918968	     -3.60394195	    -10.27446103	      2.92496009	    -11.67498614	      0.54336595	      5.34631204
      1.03300000	     -1.87800975	      3.80691122	      1.61532643	     -0.01076817	      0.99577878	      0.28629941	    -11.57484604	     -2.68187926	     -4.52933207	    -22.78511531	      7.73819585	     -0.62646921	     22.57868357	     19.98495741	      7.46263705	      7.52608815	     -5.63673510	     -3.92464866	    -10.61579659	      2.91540141	    -11.63852440	      0.32617734	      5.22541782
      1.03716667	     -1.85660297	      3.99171152	      1.59096097	     -0.00497644	      0.99548047	      0.28580337	    -11.27317380	     -2.96961444	     -4.61794907	    -24.04886797	      7.17239214	     -0.64719868	     22.75781879	     19.98137986	      7.74613390	      7.61065346	     -6.33934076	     -4.24671790	    -11.11126829	      2.89935397	    -11.65014020	      0.11297274	      5.10225640
      1.04133333	     -1.76122587	      4.21714381	      1.57724883	      0.00086067	      0.99531495	      0.28527764	    -11.03755315	     -3.30655486	     -4.77376024	    -25.33281202	      6.49703026	     -0.71696911	     23.75730669	     19.84997828	      8.07557907	      7.79118146	     -6.95311925	     -4.59810876	    -11.70702974	      2.83072100	    -11.74378074	     -0.15096151	      4.97562188
